<svg xmlns="http://www.w3.org/2000/svg" xmlns:xlink="http://www.w3.org/1999/xlink" viewBox="0 0 91.7 23.9"><defs><style>.cls-1{fill:none;}.cls-2{isolation:isolate;}.cls-3{clip-path:url(#clip-path);}.cls-4{fill:url(#linear-gradient);}.cls-5{fill:#fff;}.cls-6{clip-path:url(#clip-path-2);}.cls-7{mix-blend-mode:multiply;fill:url(#linear-gradient-2);}.cls-8{font-size:14.19px;fill:#232323;font-family:Mouser;}</style><clipPath id="clip-path"><rect class="cls-1" x="1.7" y="0.5" width="23" height="23.03"/></clipPath><linearGradient id="linear-gradient" x1="2.01" y1="11.96" x2="24.41" y2="11.96" gradientUnits="userSpaceOnUse"><stop offset="0" stop-color="#10c8dc"/><stop offset="0.54" stop-color="#3054fb"/><stop offset="1" stop-color="#9f40fb"/></linearGradient><clipPath id="clip-path-2"><path id="SVGID" class="cls-1" d="M9.4,10.9c-.3-.4.7.6-1.1-1.2s-2.7-.6-2.7-.6v9.8l3.8.4"/></clipPath><linearGradient id="linear-gradient-2" x1="7.02" y1="12.65" x2="8.48" y2="7.82" gradientUnits="userSpaceOnUse"><stop offset="0" stop-color="#fff"/><stop offset="0.21" stop-color="#fcfcfc"/><stop offset="0.36" stop-color="#f3f3f3"/><stop offset="0.48" stop-color="#e4e4e4"/><stop offset="0.59" stop-color="#cfcfcf"/><stop offset="0.7" stop-color="#b3b3b3"/><stop offset="0.8" stop-color="#919191"/><stop offset="0.89" stop-color="#696969"/><stop offset="0.92" stop-color="#595959"/></linearGradient></defs><g class="cls-2"><g id="Layer_1" data-name="Layer 1"><g class="cls-3"><path class="cls-4" d="M13.2.8h0A11.2,11.2,0,0,0,2,12H2A11.2,11.2,0,0,0,13.2,23.2h0A11.2,11.2,0,0,0,24.4,12h0A11.2,11.2,0,0,0,13.2.8Z"/></g><path class="cls-5" d="M20.1,17.1a2.2,2.2,0,0,1-2.2,2.2,2.1,2.1,0,0,1-1.6-.6h0l-.3-.3h0l-6-6.9-.6-.7v6.1a1.9,1.9,0,0,1-1.9,1.9,1.8,1.8,0,0,1-1.9-1.9V9A2.7,2.7,0,0,1,6,7.4H6V7.2h.1A2.9,2.9,0,0,1,8.5,6a3.2,3.2,0,0,1,1.9.7h0l.3.3L19,15.1l.5.4a2.2,2.2,0,0,1,.6,1.5Z"/><g class="cls-6"><rect class="cls-5" x="5.6" y="7" width="3.8" height="11.8" rx="1.9"/></g><path class="cls-5" d="M18.1,9.6H18a6.4,6.4,0,0,0-.2-.7A2.9,2.9,0,0,0,17,7.5L16,7l-.5-.2h.3l1-.5a2.7,2.7,0,0,0,.9-1.2l.3-.9c0-.1,0-.1.1-.1s.1,0,.1.1h0a3,3,0,0,1,.4,1,2.4,2.4,0,0,0,1.3,1.3l.8.2h0c.1,0,.2,0,.2.1h-.2l-.6.2a2.6,2.6,0,0,0-1.1.7,2.7,2.7,0,0,0-.6,1c-.1.3-.1.5-.2.8Z"/><path class="cls-7" d="M9.4,10.9c-.3-.4.7.6-1.1-1.2s-2.7-.6-2.7-.6v4H9.4"/><text class="cls-8" transform="translate(30.5 17)">nammoAI</text></g></g></svg>